<?xml version="1.0" encoding="utf-8"?>
<svg xmlns="http://www.w3.org/2000/svg"
	xmlns:xlink="http://www.w3.org/1999/xlink"
	width="80px" height="80px" viewBox="0 0 80 80">
<style type="text/css"><![CDATA[
.style0 {
  font-size: 18px;
  font-family: "ProximaNova-Semibold";
  fill: rgb(255,255,255);
}
]]></style>
<g transform="matrix(1.14 0.00 0.00 1.14 0.00 0.00)"><g><path fillRule="evenodd" d="M 35 67.5C 52.92 67.5 67.5 52.92 67.5 35 67.5 17.08 52.92 2.5 35 2.5 17.08 2.5 2.5 17.08 2.5 35 2.5 52.92 17.08 67.5 35 67.5M 35 70C 15.67 70-0 54.33-0 35-0 15.67 15.67-0 35-0 54.33-0 70 15.67 70 35 70 54.33 54.33 70 35 70 35 70 35 70 35 70Z" fill="rgb(255,255,255)"/><path fillRule="evenodd" d="M 35.58 65.25C 44.22 65.25 51.25 51.68 51.25 35 51.25 18.32 44.22 4.75 35.58 4.75 26.94 4.75 19.91 18.32 19.91 35 19.91 51.68 26.94 65.25 35.58 65.25M 35.58 66.5C 26.23 66.5 18.66 52.4 18.66 35 18.66 17.6 26.23 3.5 35.58 3.5 44.92 3.5 52.5 17.6 52.5 35 52.5 52.4 44.92 66.5 35.58 66.5 35.58 66.5 35.58 66.5 35.58 66.5Z" fill="rgb(255,255,255)" opacity="0.60"/><path fillRule="evenodd" d="M 35 51.25C 51.68 51.25 65.25 44.22 65.25 35.58 65.25 26.94 51.68 19.91 35 19.91 18.32 19.91 4.75 26.94 4.75 35.58 4.75 44.22 18.32 51.25 35 51.25M 35 52.5C 17.6 52.5 3.5 44.92 3.5 35.58 3.5 26.23 17.6 18.66 35 18.66 52.4 18.66 66.5 26.23 66.5 35.58 66.5 44.92 52.4 52.5 35 52.5 35 52.5 35 52.5 35 52.5Z" fill="rgb(255,255,255)" opacity="0.60"/><text transform="matrix(1.17,0.00,0.00,1.17,34.96,42.94)" class="style0"><tspan x="-16.55 -7.32 1.92 11.15" fill="rgb(255,255,255)">360˚</tspan></text></g></g></svg>